<?xml version="1.0" encoding="UTF-8" standalone="no"?>
<svg
   xmlns:dc="http://purl.org/dc/elements/1.1/"
   xmlns:cc="http://creativecommons.org/ns#"
   xmlns:rdf="http://www.w3.org/1999/02/22-rdf-syntax-ns#"
   xmlns:svg="http://www.w3.org/2000/svg"
   xmlns="http://www.w3.org/2000/svg"
   xmlns:sodipodi="http://sodipodi.sourceforge.net/DTD/sodipodi-0.dtd"
   xmlns:inkscape="http://www.inkscape.org/namespaces/inkscape"
   width="1000"
   height="1000"
   viewBox="0 0 264.58333 264.58334"
   version="1.1"
   id="svg8"
   inkscape:version="1.0.2 (394de47547, 2021-03-26)"
   sodipodi:docname="main.svg"
   inkscape:export-filename="/home/iago/Drive/Audiovisual/Father's companies/Cruz Representações/Website/offline/offline.png"
   inkscape:export-xdpi="96"
   inkscape:export-ydpi="96">
  <defs
     id="defs2">
    <linearGradient
       id="background"
       x1="100"
       y1="0"
       x2="100"
       y2="200"
       gradientUnits="userSpaceOnUse"
       spreadMethod="pad">
      <stop
         stop-color="#0C102C"
         id="stop6"
         style="stop-color:#161c50;stop-opacity:1" />
      <stop
         offset="1"
         stop-color="#161C50"
         id="stop8"
         style="stop-color:#23232a;stop-opacity:1" />
    </linearGradient>
    <radialGradient
       id="c"
       cx="0"
       cy="0"
       r="1"
       gradientUnits="userSpaceOnUse"
       gradientTransform="matrix(0,71,-71,0,100,100)">
      <stop
         stop-color="#FFDA00"
         id="stop11"
         style="stop-color:#e8c500;stop-opacity:1" />
      <stop
         offset="1"
         stop-color="#FD2A0F"
         id="stop13"
         style="stop-color:#ff5b0f;stop-opacity:1" />
    </radialGradient>
    <filter
       style="color-interpolation-filters:sRGB"
       inkscape:label="Drop Shadow"
       id="filter39"
       width="1.3099999"
       height="1.3">
      <feFlood
         flood-opacity="1"
         flood-color="rgb(0,0,0)"
         result="flood"
         id="feFlood29" />
      <feComposite
         in="flood"
         in2="SourceGraphic"
         operator="in"
         result="composite1"
         id="feComposite31" />
      <feGaussianBlur
         in="composite1"
         stdDeviation="3"
         result="blur"
         id="feGaussianBlur33" />
      <feOffset
         dx="3"
         dy="3"
         result="offset"
         id="feOffset35" />
      <feComposite
         in="SourceGraphic"
         in2="offset"
         operator="over"
         result="composite2"
         id="feComposite37" />
    </filter>
    <filter
       style="color-interpolation-filters:sRGB"
       inkscape:label="Drop Shadow"
       id="filter71"
       x="-0.039999999"
       y="-0.039999999"
       width="1.25"
       height="1.25">
      <feFlood
         flood-opacity="1"
         flood-color="rgb(0,0,0)"
         result="flood"
         id="feFlood61" />
      <feComposite
         in="flood"
         in2="SourceGraphic"
         operator="in"
         result="composite1"
         id="feComposite63" />
      <feGaussianBlur
         in="composite1"
         stdDeviation="3"
         result="blur"
         id="feGaussianBlur65" />
      <feOffset
         dx="3"
         dy="3"
         result="offset"
         id="feOffset67" />
      <feComposite
         in="SourceGraphic"
         in2="offset"
         operator="over"
         result="composite2"
         id="feComposite69" />
    </filter>
    <linearGradient
       id="Unbenannter_Verlauf"
       x1="478.0716"
       y1="498.1825"
       x2="165.9814"
       y2="215.9791"
       gradientTransform="matrix(0.31521654,0,0,-0.31521654,305.45951,195.30094)"
       gradientUnits="userSpaceOnUse">
      <stop
         offset="0"
         id="stop97"
         style="stop-color:#999999;stop-opacity:1" />
      <stop
         offset="1"
         stop-opacity="0"
         id="stop99"
         style="stop-color:#808080;stop-opacity:1" />
    </linearGradient>
  </defs>
  <sodipodi:namedview
     id="base"
     pagecolor="#666666"
     bordercolor="#000000"
     borderopacity="1"
     inkscape:pageopacity="1"
     inkscape:pageshadow="2"
     inkscape:zoom="0.35"
     inkscape:cx="1003.0118"
     inkscape:cy="508.17859"
     inkscape:document-units="px"
     inkscape:current-layer="layer1"
     inkscape:document-rotation="0"
     showgrid="false"
     units="px"
     borderlayer="true"
     inkscape:showpageshadow="false"
     inkscape:window-width="1366"
     inkscape:window-height="704"
     inkscape:window-x="0"
     inkscape:window-y="768"
     inkscape:window-maximized="1" />
  <metadata
     id="metadata5">
    <rdf:RDF>
      <cc:Work
         rdf:about="">
        <dc:format>image/svg+xml</dc:format>
        <dc:type
           rdf:resource="http://purl.org/dc/dcmitype/StillImage" />
        <dc:title />
      </cc:Work>
    </rdf:RDF>
  </metadata>
  <g
     inkscape:label="Layer 1"
     inkscape:groupmode="layer"
     id="layer1">
    <rect
       style="fill:#808080;stroke-width:0.583977"
       id="rect14"
       width="264.58334"
       height="264.58334"
       x="-4.2529296e-06"
       y="-4.2529296e-06" />
    <g
       id="g1011"
       transform="matrix(1.3986658,0,0,1.3986658,-65.059043,-24.763188)">
      <path
         style="fill:#999999;fill-opacity:1;stroke:none;stroke-width:0.264583px;stroke-linecap:butt;stroke-linejoin:miter;stroke-opacity:1"
         d="m 102.32992,137.19994 8.31289,-6.35023 13.12482,-6.68886 16.6481,-2.35783 24.14743,2.43694 18.04154,9.02169 5.83378,-4.8624 5.23494,-5.08939 -16.58131,-12.41625 -19.53927,-7.15602 -7.1797,-1.27882 -27.59029,1.76942 -12.50868,4.28696 -20.265228,12.98409 -1.523461,1.8642 z"
         id="path996" />
      <path
         d="m 195.27026,123.30297 a 76.164795,76.164795 0 0 0 -41.93795,-21.42735 l 2.73167,2.73167 a 74.007105,74.007105 0 0 1 36.04611,18.73568 l -8.65489,8.65491 -27.39122,-27.39059 42.89593,42.89593 -13.94475,-13.94519 z"
         style="fill:#b3b3b3;fill-opacity:1;stroke-width:0.315216"
         id="path108" />
      <g
         id="g988">
        <path
           style="fill:#999999;fill-opacity:1;stroke:none;stroke-width:0.264583px;stroke-linecap:butt;stroke-linejoin:miter;stroke-opacity:1"
           d="m 119.51422,154.27918 8.91518,-6.24293 12.53395,-2.28272 8.33495,0.74423 5.02346,1.74034 8.30818,5.79611 -21.57428,21.74282 z"
           id="path984" />
        <path
           d="m 117.88277,154.25831 23.21643,23.21569 23.21642,-23.21569 a 32.788477,32.788477 0 0 0 -46.43288,0 z m 23.21643,20.09559 -20.01748,-20.01749 a 30.413762,30.413762 0 0 1 40.03928,-0.005 z"
           style="fill:#b3b3b3;fill-opacity:1;stroke-width:0.315216"
           id="path110" />
      </g>
      <path
         style="fill:#999999;fill-opacity:1;stroke:none;stroke-width:0.264583px;stroke-linecap:butt;stroke-linejoin:miter;stroke-opacity:1"
         d="m 57.433921,92.207907 14.093952,13.849393 19.317925,-14.847753 13.420662,-6.36506 26.88074,-6.6636 26.45705,0.389054 31.22292,11.203437 19.03268,13.798012 3.15956,2.59784 L 224.57398,92.351981 210.46802,80.351179 189.25198,68.141698 159.33751,59.254678 133.51388,58.147777 106.76736,62.983384 86.809992,70.9439 65.36033,85.186257 Z"
         id="path998" />
      <path
         d="M 141.12813,57.118026 A 121.02525,121.02525 0 0 0 112.10482,60.6482 l 1.82666,1.826648 A 118.12538,118.12538 0 0 1 223.06537,92.387605 L 210.7079,104.74447 C 188.13325,83.125093 157.9544,74.060569 129.00034,77.543491 l 1.96209,1.962097 a 98.303997,98.303997 0 0 1 79.78547,28.320382 l 15.47713,-15.477641 a 119.96047,119.96047 0 0 0 -85.0969,-35.230303 z"
         style="fill:#b3b3b3;fill-opacity:1;stroke-width:0.315216"
         id="path112" />
      <path
         d="M 102.48454,135.73934 90.09023,123.34502 a 74.244811,74.244811 0 0 1 35.45981,-18.60635 L 104.4909,83.679307 A 100.20589,100.20589 0 0 0 71.490532,104.7446 L 59.13429,92.388961 A 118.27618,118.27618 0 0 1 91.179202,70.367524 l -1.670265,-1.67027 A 120.31103,120.31103 0 0 0 55.973491,92.348329 l 15.47713,15.477641 A 98.127096,98.127096 0 0 1 106.16754,85.356323 L 123.7087,102.89765 A 76.375548,76.375548 0 0 0 86.928097,123.303 l 15.477643,15.47764 a 54.581981,54.581981 0 0 1 41.22626,-15.9597 l 40.00542,40.00539 -42.19256,-42.19283 a 56.700016,56.700016 0 0 0 -38.96032,15.10584 z"
         style="fill:#b3b3b3;fill-opacity:1;stroke-width:0.315216"
         id="path114" />
      <g
         id="g994">
        <path
           style="fill:#999999;fill-opacity:1;stroke:none;stroke-width:0.264583px;stroke-linecap:butt;stroke-linejoin:miter;stroke-opacity:1"
           d="M 84.901814,62.462647 183.55672,161.29309 197.38337,147.57813 98.639856,48.588742 Z"
           id="path990" />
        <path
           d="M 98.560975,50.224808 195.83945,147.50322 183.63742,159.70575 86.359016,62.426778 98.561047,50.224745 m 0,-3.120643 L 83.238556,62.426588 183.63748,162.82621 198.95993,147.50322 98.560975,47.104323 Z"
           style="fill:#b3b3b3;fill-opacity:1;stroke-width:0.315216"
           id="path116" />
      </g>
    </g>
  </g>
</svg>
